<svg width="153" height="148" viewBox="0 0 153 148" fill="none" xmlns="http://www.w3.org/2000/svg">
<g clip-path="url(#clip0_131_13)">
<mask id="mask0_131_13" style="mask-type:luminance" maskUnits="userSpaceOnUse" x="0" y="0" width="153" height="148">
<path d="M79 0H74C33.1309 0 0 33.1309 0 74C0 114.869 33.1309 148 74 148H79C119.869 148 153 114.869 153 74C153 33.1309 119.869 0 79 0Z" fill="white"/>
</mask>
<g mask="url(#mask0_131_13)">
<path d="M153.5 77C153.5 34.7502 119.25 0.5 77 0.5C34.7502 0.5 0.5 34.7502 0.5 77C0.5 119.25 34.7502 153.5 77 153.5C119.25 153.5 153.5 119.25 153.5 77Z" fill="#555454" stroke="#343434"/>
<path d="M94.776 22.4371L48 56.2286L148.074 194.756L194.85 160.965L94.776 22.4371Z" fill="url(#paint0_linear_131_13)"/>
<path d="M67.5142 75.7442L19.7703 110.235L92.0188 210.245L139.763 175.754L67.5142 75.7442Z" fill="url(#paint1_linear_131_13)"/>
<path d="M126.776 76.0004L80 109.792L180.074 248.32L226.85 214.528L126.776 76.0004Z" fill="#414141"/>
<g filter="url(#filter0_d_131_13)">
<path d="M137 98C137 81.4315 123.569 68 107 68C90.4315 68 77 81.4315 77 98C77 114.569 90.4315 128 107 128C123.569 128 137 114.569 137 98Z" fill="#7FAFFF"/>
</g>
<g filter="url(#filter1_d_131_13)">
<path d="M107 47C107 30.4315 93.5685 17 77 17C60.4315 17 47 30.4315 47 47C47 63.5685 60.4315 77 77 77C93.5685 77 107 63.5685 107 47Z" fill="#4AFFB7"/>
</g>
<g filter="url(#filter2_d_131_13)">
<path d="M77 98C77 81.4315 63.5685 68 47 68C30.4315 68 17 81.4315 17 98C17 114.569 30.4315 128 47 128C63.5685 128 77 114.569 77 98Z" fill="#FF858C"/>
</g>
</g>
</g>
<defs>
<filter id="filter0_d_131_13" x="69" y="60" width="68" height="68" filterUnits="userSpaceOnUse" color-interpolation-filters="sRGB">
<feFlood flood-opacity="0" result="BackgroundImageFix"/>
<feColorMatrix in="SourceAlpha" type="matrix" values="0 0 0 0 0 0 0 0 0 0 0 0 0 0 0 0 0 0 127 0" result="hardAlpha"/>
<feOffset dx="-4" dy="-4"/>
<feGaussianBlur stdDeviation="2"/>
<feComposite in2="hardAlpha" operator="out"/>
<feColorMatrix type="matrix" values="0 0 0 0 0 0 0 0 0 0 0 0 0 0 0 0 0 0 0.25 0"/>
<feBlend mode="normal" in2="BackgroundImageFix" result="effect1_dropShadow_131_13"/>
<feBlend mode="normal" in="SourceGraphic" in2="effect1_dropShadow_131_13" result="shape"/>
</filter>
<filter id="filter1_d_131_13" x="39" y="9" width="68" height="68" filterUnits="userSpaceOnUse" color-interpolation-filters="sRGB">
<feFlood flood-opacity="0" result="BackgroundImageFix"/>
<feColorMatrix in="SourceAlpha" type="matrix" values="0 0 0 0 0 0 0 0 0 0 0 0 0 0 0 0 0 0 127 0" result="hardAlpha"/>
<feOffset dx="-4" dy="-4"/>
<feGaussianBlur stdDeviation="2"/>
<feComposite in2="hardAlpha" operator="out"/>
<feColorMatrix type="matrix" values="0 0 0 0 0 0 0 0 0 0 0 0 0 0 0 0 0 0 0.25 0"/>
<feBlend mode="normal" in2="BackgroundImageFix" result="effect1_dropShadow_131_13"/>
<feBlend mode="normal" in="SourceGraphic" in2="effect1_dropShadow_131_13" result="shape"/>
</filter>
<filter id="filter2_d_131_13" x="9" y="60" width="68" height="68" filterUnits="userSpaceOnUse" color-interpolation-filters="sRGB">
<feFlood flood-opacity="0" result="BackgroundImageFix"/>
<feColorMatrix in="SourceAlpha" type="matrix" values="0 0 0 0 0 0 0 0 0 0 0 0 0 0 0 0 0 0 127 0" result="hardAlpha"/>
<feOffset dx="-4" dy="-4"/>
<feGaussianBlur stdDeviation="2"/>
<feComposite in2="hardAlpha" operator="out"/>
<feColorMatrix type="matrix" values="0 0 0 0 0 0 0 0 0 0 0 0 0 0 0 0 0 0 0.25 0"/>
<feBlend mode="normal" in2="BackgroundImageFix" result="effect1_dropShadow_131_13"/>
<feBlend mode="normal" in="SourceGraphic" in2="effect1_dropShadow_131_13" result="shape"/>
</filter>
<linearGradient id="paint0_linear_131_13" x1="71.388" y1="39.3329" x2="171.462" y2="177.861" gradientUnits="userSpaceOnUse">
<stop stop-color="#4D4D4D"/>
<stop offset="1" stop-color="#3F3F3F"/>
</linearGradient>
<linearGradient id="paint1_linear_131_13" x1="43.6422" y1="92.9896" x2="99.7829" y2="173.574" gradientUnits="userSpaceOnUse">
<stop stop-color="#707070"/>
<stop offset="1" stop-color="#3F3F3F"/>
</linearGradient>
<clipPath id="clip0_131_13">
<rect width="153" height="148" fill="white"/>
</clipPath>
</defs>
</svg>
